<mxfile host="app.diagrams.net" agent="Mozilla/5.0 (X11; Linux x86_64; rv:138.0) Gecko/20100101 Firefox/138.0" version="27.0.5">
  <diagram name="Page-1" id="ApHVLocTyimHsScQqBKt">
    <mxGraphModel dx="1213" dy="651" grid="1" gridSize="10" guides="1" tooltips="1" connect="1" arrows="1" fold="1" page="1" pageScale="1" pageWidth="850" pageHeight="1100" math="0" shadow="0">
      <root>
        <mxCell id="0" />
        <mxCell id="1" parent="0" />
        <mxCell id="lq6e3s-ZVgdFsiZmMWtM-6" style="edgeStyle=orthogonalEdgeStyle;rounded=0;orthogonalLoop=1;jettySize=auto;html=1;entryX=0.5;entryY=1;entryDx=0;entryDy=0;" edge="1" parent="1" source="lq6e3s-ZVgdFsiZmMWtM-1" target="lq6e3s-ZVgdFsiZmMWtM-5">
          <mxGeometry relative="1" as="geometry" />
        </mxCell>
        <mxCell id="lq6e3s-ZVgdFsiZmMWtM-10" style="edgeStyle=orthogonalEdgeStyle;rounded=0;orthogonalLoop=1;jettySize=auto;html=1;exitX=0;exitY=1;exitDx=0;exitDy=0;exitPerimeter=0;entryX=1;entryY=0.5;entryDx=0;entryDy=0;" edge="1" parent="1" source="lq6e3s-ZVgdFsiZmMWtM-1" target="lq6e3s-ZVgdFsiZmMWtM-8">
          <mxGeometry relative="1" as="geometry">
            <Array as="points">
              <mxPoint x="380" y="600" />
              <mxPoint x="180" y="600" />
            </Array>
          </mxGeometry>
        </mxCell>
        <mxCell id="lq6e3s-ZVgdFsiZmMWtM-12" style="edgeStyle=orthogonalEdgeStyle;rounded=0;orthogonalLoop=1;jettySize=auto;html=1;entryX=0.5;entryY=1;entryDx=0;entryDy=0;" edge="1" parent="1" source="lq6e3s-ZVgdFsiZmMWtM-1" target="lq6e3s-ZVgdFsiZmMWtM-7">
          <mxGeometry relative="1" as="geometry">
            <Array as="points">
              <mxPoint x="215" y="570" />
            </Array>
          </mxGeometry>
        </mxCell>
        <mxCell id="lq6e3s-ZVgdFsiZmMWtM-13" style="edgeStyle=orthogonalEdgeStyle;rounded=0;orthogonalLoop=1;jettySize=auto;html=1;entryX=0.5;entryY=1;entryDx=0;entryDy=0;" edge="1" parent="1" source="lq6e3s-ZVgdFsiZmMWtM-1" target="lq6e3s-ZVgdFsiZmMWtM-9">
          <mxGeometry relative="1" as="geometry" />
        </mxCell>
        <mxCell id="lq6e3s-ZVgdFsiZmMWtM-1" value="&lt;div&gt;User&lt;/div&gt;" style="shape=umlActor;verticalLabelPosition=bottom;verticalAlign=top;html=1;outlineConnect=0;" vertex="1" parent="1">
          <mxGeometry x="380" y="520" width="30" height="60" as="geometry" />
        </mxCell>
        <mxCell id="lq6e3s-ZVgdFsiZmMWtM-5" value="Sign in" style="ellipse;whiteSpace=wrap;html=1;" vertex="1" parent="1">
          <mxGeometry x="420" y="430" width="80" height="60" as="geometry" />
        </mxCell>
        <mxCell id="lq6e3s-ZVgdFsiZmMWtM-7" value="View images taken" style="ellipse;whiteSpace=wrap;html=1;" vertex="1" parent="1">
          <mxGeometry x="170" y="420" width="90" height="70" as="geometry" />
        </mxCell>
        <mxCell id="lq6e3s-ZVgdFsiZmMWtM-8" value="View converted images" style="ellipse;whiteSpace=wrap;html=1;" vertex="1" parent="1">
          <mxGeometry x="80" y="490" width="100" height="70" as="geometry" />
        </mxCell>
        <mxCell id="lq6e3s-ZVgdFsiZmMWtM-9" value="Access camera" style="ellipse;whiteSpace=wrap;html=1;" vertex="1" parent="1">
          <mxGeometry x="300" y="395" width="90" height="60" as="geometry" />
        </mxCell>
        <mxCell id="lq6e3s-ZVgdFsiZmMWtM-16" value="Take pictures" style="ellipse;whiteSpace=wrap;html=1;" vertex="1" parent="1">
          <mxGeometry x="350" y="280" width="90" height="60" as="geometry" />
        </mxCell>
        <mxCell id="lq6e3s-ZVgdFsiZmMWtM-17" value="Recognize buildings in real-time" style="ellipse;whiteSpace=wrap;html=1;" vertex="1" parent="1">
          <mxGeometry x="200" y="260" width="130" height="80" as="geometry" />
        </mxCell>
        <mxCell id="lq6e3s-ZVgdFsiZmMWtM-21" value="&amp;lt;&amp;lt;include&amp;gt;&amp;gt;" style="html=1;verticalAlign=bottom;labelBackgroundColor=none;endArrow=open;endFill=0;dashed=1;rounded=0;exitX=0;exitY=0.5;exitDx=0;exitDy=0;entryX=0.5;entryY=1;entryDx=0;entryDy=0;" edge="1" parent="1" source="lq6e3s-ZVgdFsiZmMWtM-9" target="lq6e3s-ZVgdFsiZmMWtM-17">
          <mxGeometry width="160" relative="1" as="geometry">
            <mxPoint x="270" y="250" as="sourcePoint" />
            <mxPoint x="430" y="250" as="targetPoint" />
          </mxGeometry>
        </mxCell>
        <mxCell id="lq6e3s-ZVgdFsiZmMWtM-22" value="&amp;lt;&amp;lt;include&amp;gt;&amp;gt;" style="html=1;verticalAlign=bottom;labelBackgroundColor=none;endArrow=open;endFill=0;dashed=1;rounded=0;exitX=1;exitY=0.5;exitDx=0;exitDy=0;entryX=0.5;entryY=1;entryDx=0;entryDy=0;" edge="1" parent="1" source="lq6e3s-ZVgdFsiZmMWtM-9" target="lq6e3s-ZVgdFsiZmMWtM-16">
          <mxGeometry width="160" relative="1" as="geometry">
            <mxPoint x="465" y="420" as="sourcePoint" />
            <mxPoint x="410" y="335" as="targetPoint" />
          </mxGeometry>
        </mxCell>
        <mxCell id="lq6e3s-ZVgdFsiZmMWtM-23" value="View building info" style="ellipse;whiteSpace=wrap;html=1;" vertex="1" parent="1">
          <mxGeometry x="40" y="260" width="120" height="65" as="geometry" />
        </mxCell>
        <mxCell id="lq6e3s-ZVgdFsiZmMWtM-26" value="&amp;lt;&amp;lt;include&amp;gt;&amp;gt;" style="html=1;verticalAlign=bottom;labelBackgroundColor=none;endArrow=open;endFill=0;dashed=1;rounded=0;exitX=0;exitY=0;exitDx=0;exitDy=0;entryX=0.5;entryY=1;entryDx=0;entryDy=0;" edge="1" parent="1" source="lq6e3s-ZVgdFsiZmMWtM-7" target="lq6e3s-ZVgdFsiZmMWtM-23">
          <mxGeometry width="160" relative="1" as="geometry">
            <mxPoint x="147.5" y="414" as="sourcePoint" />
            <mxPoint x="112.5" y="329" as="targetPoint" />
          </mxGeometry>
        </mxCell>
        <mxCell id="lq6e3s-ZVgdFsiZmMWtM-27" value="&amp;lt;&amp;lt;include&amp;gt;&amp;gt;" style="html=1;verticalAlign=bottom;labelBackgroundColor=none;endArrow=open;endFill=0;dashed=1;rounded=0;exitX=0.343;exitY=0.057;exitDx=0;exitDy=0;entryX=0.314;entryY=0.954;entryDx=0;entryDy=0;entryPerimeter=0;exitPerimeter=0;" edge="1" parent="1" source="lq6e3s-ZVgdFsiZmMWtM-8" target="lq6e3s-ZVgdFsiZmMWtM-23">
          <mxGeometry width="160" relative="1" as="geometry">
            <mxPoint x="133" y="460" as="sourcePoint" />
            <mxPoint x="50" y="355" as="targetPoint" />
          </mxGeometry>
        </mxCell>
        <mxCell id="lq6e3s-ZVgdFsiZmMWtM-28" value="&amp;lt;&amp;lt;extend&amp;gt;&amp;gt;" style="html=1;verticalAlign=bottom;labelBackgroundColor=none;endArrow=open;endFill=0;dashed=1;rounded=0;entryX=0.5;entryY=0;entryDx=0;entryDy=0;exitX=0.5;exitY=1;exitDx=0;exitDy=0;" edge="1" parent="1" source="lq6e3s-ZVgdFsiZmMWtM-29" target="lq6e3s-ZVgdFsiZmMWtM-7">
          <mxGeometry width="160" relative="1" as="geometry">
            <mxPoint x="130" y="200" as="sourcePoint" />
            <mxPoint x="290" y="200" as="targetPoint" />
          </mxGeometry>
        </mxCell>
        <mxCell id="lq6e3s-ZVgdFsiZmMWtM-29" value="Regenerate images to sunny/cloudy" style="ellipse;whiteSpace=wrap;html=1;" vertex="1" parent="1">
          <mxGeometry x="100" y="140" width="130" height="80" as="geometry" />
        </mxCell>
      </root>
    </mxGraphModel>
  </diagram>
</mxfile>
